<?xml version="1.0" encoding="UTF-8" standalone="no"?>
<!DOCTYPE svg PUBLIC "-//W3C//DTD SVG 1.1//EN" "http://www.w3.org/Graphics/SVG/1.1/DTD/svg11.dtd">
<svg width="100%" height="100%" viewBox="0 0 15 21" version="1.1" xmlns="http://www.w3.org/2000/svg" xmlns:xlink="http://www.w3.org/1999/xlink" xml:space="preserve" xmlns:serif="http://www.serif.com/" style="fill-rule:evenodd;clip-rule:evenodd;stroke-linejoin:round;stroke-miterlimit:2;">
    <g transform="matrix(0.998998,0,0,1,0,-1)">
        <path d="M14.209,2.964C14.209,1.77 13.143,0.826 11.911,1.027C10.944,1.184 10.273,2.091 10.273,3.069L10.273,10.417C12.448,10.417 14.209,8.658 14.209,6.487L14.209,2.964ZM10.273,19.203C10.273,20.396 11.339,21.34 12.572,21.14C13.539,20.983 14.209,20.076 14.209,19.098L14.209,15.68C14.209,13.508 12.448,11.75 10.273,11.75L10.273,19.203ZM9.07,5.075C9.07,3.888 8.011,2.95 6.784,3.147C5.824,3.305 5.156,4.206 5.156,5.18L5.156,10.418C7.319,10.418 9.07,8.669 9.07,6.51L9.07,5.075ZM5.156,17.093C5.156,18.28 6.216,19.218 7.442,19.021C8.403,18.863 9.07,17.963 9.07,16.988L9.07,15.658C9.07,13.499 7.319,11.75 5.156,11.75L5.156,17.093ZM3.948,7.58C3.948,6.383 2.879,5.436 1.643,5.636C0.673,5.794 0,6.704 0,7.685C0,9.193 1.223,10.415 2.734,10.415L3.948,10.415L3.948,7.58ZM0,14.587C0,15.784 1.069,16.731 2.305,16.53C3.275,16.373 3.948,15.463 3.948,14.482L3.948,11.752L2.734,11.752C1.223,11.752 0,12.974 0,14.482L0,14.587Z" style="fill-rule:nonzero;"/>
    </g>
</svg>
